<svg width="25" height="25" viewBox="0 0 25 25" fill="none" xmlns="http://www.w3.org/2000/svg">
<path d="M12.4993 6.45817C11.3044 6.45817 10.1363 6.81251 9.14278 7.47638C8.14923 8.14024 7.37486 9.08382 6.91758 10.1878C6.4603 11.2918 6.34065 12.5065 6.57377 13.6785C6.80689 14.8505 7.3823 15.927 8.22725 16.7719C9.07219 17.6169 10.1487 18.1923 11.3207 18.4254C12.4926 18.6585 13.7074 18.5389 14.8114 18.0816C15.9154 17.6243 16.8589 16.85 17.5228 15.8564C18.1867 14.8629 18.541 13.6948 18.541 12.4998C18.541 10.8975 17.9045 9.36077 16.7715 8.22773C15.6384 7.0947 14.1017 6.45817 12.4993 6.45817ZM12.4993 16.1248C11.7824 16.1248 11.0815 15.9122 10.4854 15.5139C9.88928 15.1156 9.42465 14.5494 9.15029 13.8871C8.87592 13.2247 8.80413 12.4958 8.944 11.7926C9.08387 11.0895 9.42912 10.4435 9.93609 9.93657C10.4431 9.42961 11.089 9.08436 11.7921 8.94449C12.4953 8.80462 13.2242 8.87641 13.8866 9.15077C14.549 9.42514 15.1151 9.88977 15.5134 10.4859C15.9117 11.082 16.1243 11.7829 16.1243 12.4998C16.1243 13.4612 15.7424 14.3833 15.0626 15.0631C14.3828 15.7429 13.4608 16.1248 12.4993 16.1248ZM18.541 5.24984C18.302 5.24984 18.0684 5.3207 17.8697 5.45348C17.671 5.58625 17.5161 5.77497 17.4247 5.99576C17.3332 6.21656 17.3093 6.45951 17.3559 6.6939C17.4025 6.9283 17.5176 7.1436 17.6866 7.31259C17.8556 7.48158 18.0709 7.59666 18.3053 7.64329C18.5397 7.68991 18.7826 7.66598 19.0034 7.57453C19.2242 7.48307 19.4129 7.32819 19.5457 7.12948C19.6785 6.93078 19.7493 6.69716 19.7493 6.45817C19.7493 6.1377 19.622 5.83036 19.3954 5.60375C19.1688 5.37714 18.8615 5.24984 18.541 5.24984ZM24.5102 7.9565C24.4902 6.92389 24.294 5.90227 23.9302 4.93567C23.5928 4.05608 23.0742 3.25729 22.408 2.59114C21.7419 1.92499 20.9431 1.40639 20.0635 1.069C19.0969 0.705174 18.0753 0.509023 17.0427 0.489004C15.8706 0.416504 15.4839 0.416504 12.4993 0.416504C9.51477 0.416504 9.1281 0.416504 7.95602 0.489004C6.9234 0.509023 5.90178 0.705174 4.93518 1.069C4.0556 1.40639 3.2568 1.92499 2.59065 2.59114C1.9245 3.25729 1.4059 4.05608 1.06852 4.93567C0.704686 5.90227 0.508535 6.92389 0.488516 7.9565C0.416016 9.14067 0.416016 9.52734 0.416016 12.4998C0.416016 15.4723 0.416016 15.859 0.488516 17.0432C0.508535 18.0758 0.704686 19.0974 1.06852 20.064C1.4059 20.9436 1.9245 21.7424 2.59065 22.4085C3.2568 23.0747 4.0556 23.5933 4.93518 23.9307C5.90178 24.2945 6.9234 24.4907 7.95602 24.5107C9.16435 24.5107 9.51477 24.5832 12.4993 24.5832C15.4839 24.5832 15.8706 24.5832 17.0427 24.5107C18.0753 24.4907 19.0969 24.2945 20.0635 23.9307C20.9431 23.5933 21.7419 23.0747 22.408 22.4085C23.0742 21.7424 23.5928 20.9436 23.9302 20.064C24.294 19.0974 24.4902 18.0758 24.5102 17.0432C24.5102 15.8348 24.5827 15.4723 24.5827 12.4998C24.5827 9.52734 24.5827 9.14067 24.5102 7.9565ZM22.0935 16.9344C22.0723 17.7012 21.9296 18.4598 21.6706 19.1819C21.4565 19.7527 21.118 20.2686 20.6798 20.6923C20.2586 21.1308 19.7416 21.4658 19.1693 21.6711C18.4456 21.9407 17.6819 22.0877 16.9098 22.1061C15.7739 22.1061 15.4235 22.1665 12.4873 22.1665C9.55102 22.1665 9.21268 22.1665 8.07685 22.1665C7.30596 22.1466 6.54317 22.0038 5.81727 21.7436C5.24652 21.5295 4.73058 21.191 4.30685 20.7528C3.86841 20.3316 3.53342 19.8146 3.3281 19.2423C3.05961 18.5224 2.91261 17.7629 2.8931 16.9948C2.8931 15.7865 2.8931 15.4844 2.8931 12.5603C2.8931 9.63609 2.8931 9.28567 2.8931 8.12567C2.91393 7.3538 3.06087 6.59053 3.3281 5.86609C3.53661 5.29893 3.87128 4.78659 4.30685 4.36775C4.72804 3.92932 5.24501 3.59432 5.81727 3.389C6.54105 3.11942 7.30471 2.9724 8.07685 2.954C9.21268 2.83317 9.5631 2.83317 12.4993 2.83317C15.4356 2.83317 15.786 2.83317 16.9219 2.83317C17.6978 2.8529 18.4652 2.99985 19.1935 3.26817C19.7607 3.47668 20.273 3.81136 20.6919 4.24692C21.1303 4.66812 21.4653 5.18508 21.6706 5.75734C21.9664 6.49268 22.134 7.27329 22.166 8.06525C22.166 9.27359 22.2264 9.57567 22.2264 12.4998C22.2264 15.424 22.166 15.7744 22.166 16.9344H22.0935Z" fill="black"/>
</svg>
