<svg width="28" height="27" viewBox="0 0 28 27" fill="none" xmlns="http://www.w3.org/2000/svg">
<path d="M18.6356 15.3481C18.2826 14.9664 17.8862 14.6273 17.4545 14.3378C19.1966 12.9908 20.4175 11.0812 20.9089 8.93469C20.9451 8.77957 20.9504 8.61881 20.9243 8.46165C20.8982 8.30449 20.8413 8.15405 20.7568 8.01897C20.6724 7.8839 20.562 7.76685 20.4322 7.67458C20.3023 7.5823 20.1555 7.51662 20.0001 7.4813C19.8448 7.44599 19.684 7.44174 19.527 7.4688C19.37 7.49586 19.2199 7.5537 19.0854 7.63898C18.9508 7.72427 18.8344 7.83532 18.743 7.96575C18.6515 8.09618 18.5867 8.24341 18.5524 8.39897C18.3235 9.40305 17.8784 10.3451 17.248 11.1595C16.6177 11.9739 15.8172 12.641 14.9026 13.1142V8.66925C14.8951 8.58033 14.8774 8.49257 14.8498 8.40773C14.8418 8.33786 14.8278 8.2688 14.8081 8.20131C14.7566 8.09141 14.6886 7.99 14.6066 7.90054C14.5849 7.87488 14.574 7.84103 14.5504 7.81729C14.4619 7.73557 14.3617 7.66753 14.2531 7.61542C14.2222 7.59898 14.1993 7.57117 14.1669 7.55742C14.0744 7.52658 13.9784 7.50685 13.8812 7.49864C13.8212 7.48108 13.7599 7.46847 13.6978 7.46095L12.9072 7.4585H12.9036C12.621 7.45715 12.3469 7.55542 12.1294 7.73606C11.912 7.91669 11.7651 8.16815 11.7146 8.44629C11.6642 8.72442 11.7133 9.01145 11.8533 9.25698C11.9934 9.50252 12.2155 9.69086 12.4806 9.78895V15.6985C10.5658 13.7108 9.29788 11.1898 8.84382 8.46745C8.81732 8.31102 8.76026 8.16134 8.67592 8.02695C8.59157 7.89257 8.48158 7.77611 8.35223 7.68424C8.22287 7.59236 8.07669 7.52686 7.92202 7.49148C7.76736 7.4561 7.60723 7.45152 7.4508 7.47802C7.29437 7.50452 7.14468 7.56157 7.0103 7.64592C6.87591 7.73027 6.75946 7.84026 6.66758 7.96961C6.5757 8.09897 6.5102 8.24515 6.47482 8.39982C6.43944 8.55448 6.43487 8.7146 6.46137 8.87104C7.16751 13.0791 9.51408 16.8353 12.9862 19.3153C13.0358 19.345 13.0874 19.371 13.1407 19.3932C13.1825 19.4178 13.2259 19.4397 13.2706 19.4587C13.4055 19.5126 13.549 19.5416 13.6943 19.5442C13.872 19.5421 14.047 19.5 14.2064 19.4212C14.2184 19.4155 14.2322 19.4181 14.2441 19.4121C14.3509 19.3565 14.4488 19.285 14.5343 19.2003C14.5515 19.1835 14.563 19.163 14.5792 19.1453C14.6572 19.0596 14.7222 18.9631 14.7724 18.8587C14.7892 18.824 14.8046 18.7909 14.8181 18.7545C14.8712 18.6212 14.8998 18.4794 14.9026 18.3359L14.9032 15.767C15.6519 15.9868 16.3264 16.4066 16.8543 16.9812L18.8456 19.1524C18.9527 19.2698 19.0819 19.3648 19.2258 19.4321C19.3698 19.4995 19.5255 19.5377 19.6842 19.5448C19.843 19.5518 20.0015 19.5275 20.1508 19.4732C20.3001 19.4188 20.4372 19.3356 20.5543 19.2282C20.6714 19.1208 20.7662 18.9914 20.8332 18.8473C20.9002 18.7033 20.9381 18.5474 20.9448 18.3887C20.9515 18.2299 20.9268 18.0714 20.8721 17.9223C20.8174 17.7731 20.7339 17.6362 20.6262 17.5193L18.6356 15.3481ZM17.8249 0.208496H10.4115C2.97147 0.208496 0.820312 2.3573 0.820312 9.78666V17.2007C0.820312 24.6407 2.96852 26.7918 10.3991 26.7918H17.8125C25.2525 26.7918 27.4036 24.643 27.4036 17.2137V9.79964C27.4036 2.35966 25.2554 0.208496 17.8249 0.208496ZM24.987 17.2137C24.987 23.3037 23.9143 24.3752 17.8125 24.3752H10.3991C4.30784 24.3752 3.23698 23.3025 3.23698 17.2007V9.78666C3.23698 3.69662 4.30962 2.62516 10.4115 2.62516H17.8249C23.9161 2.62516 24.987 3.6978 24.987 9.79964V17.2137Z" fill="black"/>
</svg>
